<?xml version="1.0" encoding="UTF-8"?>
<svg width="819" height="366" xmlns="http://www.w3.org/2000/svg" xmlns:svg="http://www.w3.org/2000/svg" xmlns:xlink="http://www.w3.org/1999/xlink">
 <title>tray-logo-chapado.svg</title>
 <desc>Created using Figma</desc>
 <defs>
  <path id="a" d="m0,0c0,76.8 44.3,150.6 61.7,176.3c4.1,6.1 11,9.7 18.3,9.7l112.2,0c7.4,0 14.2,-3.7 18.3,-9.7c17.4,-25.7 61.7,-99.5 61.7,-176.3l-272.2,0z"/>
  <path id="b" d="m1.9,2.1c-0.6,-0.7 -1.3,-1.4 -1.9,-2.1c0.6,0.8 1.3,1.5 1.9,2.1z"/>
  <path id="c" d="m0,0l26.3,0c2.8,15.5 7.7,35.9 15.9,58.8c-8.2,-22.9 -13,-43.3 -15.9,-58.8l-26.3,0z"/>
  <path id="d" d="m0,33.1c6.4,-10.8 12.4,-21.9 18.2,-33.1c-5.7,11.3 -11.8,22.3 -18.2,33.1z"/>
  <path id="e" d="m9.8,0c-3.1,6.8 -6.4,13.5 -9.8,20.2c3.3,-6.7 6.6,-13.4 9.8,-20.2z"/>
  <path id="f" d="m185.9,55c8,-33.1 11.2,-55 11.2,-55l-38.9,0c-2.2,19.9 -6.3,41.8 -12.2,65c-0.4,1.7 -0.8,3.3 -1.3,5c-5.5,20.9 -12.3,42.7 -20.3,64.8c-2.8,7.7 -5.8,15.5 -9,23.3c-0.4,-0.5 -0.9,-0.9 -1.3,-1.4l-0.9,-0.9c-6.8,-10.9 -16.9,-28.7 -26.6,-52.3c-0.2,-0.6 -0.5,-1.2 -0.7,-1.8c-1.3,-3.3 -2.6,-6.7 -3.9,-10.2c-9.3,-25.2 -17.5,-55.9 -20.8,-90.8l0,-0.3l-61.2,0l0,30.9l26.3,0c2.8,15.5 7.7,35.9 15.9,58.8c10.5,29.5 26.6,63 51,95.7c0.9,1.3 2,2.6 3.1,3.8c0.6,0.7 1.3,1.4 1.9,2.1l1.8,1.8c-3.1,6.8 -6.4,13.5 -9.8,20.2c-1,2 -2.1,4.1 -3.1,6.1c-5.8,11.2 -11.9,22.3 -18.2,33.1l35.7,0c7.9,-11.9 15.2,-24.3 22,-36.9c7.5,-14 14.3,-28.3 20.4,-42.6c7.7,-18 14.3,-35.8 20,-52.8c1.1,-3.4 2.2,-6.8 3.3,-10.1c1.1,-3.3 2.1,-6.6 3.1,-9.9c3,-9.8 5.6,-19.2 8,-28c1.5,-5.6 2.9,-11 4.1,-16.1c0.1,-0.4 0.3,-0.9 0.4,-1.5z"/>
  <path id="g" d="m23.7,47.4c13.09,0 23.7,-10.61 23.7,-23.7s-10.61,-23.7 -23.7,-23.7s-23.7,10.61 -23.7,23.7s10.61,23.7 23.7,23.7z"/>
  <path id="h" d="m90.9,246.6c-39.6,0 -62.9,-20.4 -62.9,-68.2l0,-100.2l-28,0l0,-31.6l28,0l0,-44.7l39.2,-1.9l0,46.6l48.6,0l0,31.6l-48.6,0l0,99.8c0,25.8 11.3,35.8 30.3,35.8c8.2,0 16.7,-1.2 22.5,-2.7l2.3,31.6c-9.2,2.3 -19.3,3.9 -31.4,3.9z"/>
  <path id="i" d="m81.5,0c10.9,0 20.6,1.2 27.6,2.7l-5.4,32.8c-5.8,-1.9 -13.2,-2.7 -19.4,-2.7c-19.4,0 -34.2,4.2 -45.1,10l0,157.3l-39.2,0l0,-181.6c20.1,-11.1 51.6,-18.5 81.5,-18.5z"/>
  <path id="j" d="m76.5,204.7c-50.9,0 -76.5,-24.7 -76.5,-58.6c0,-40.1 32.2,-59.7 76.5,-59.7c13.2,0 29.1,1.5 41.2,4.2l0,-16.2c0,-27 -14.8,-41.6 -45.5,-41.6c-18.3,0 -36.9,3.5 -52.1,9.6l-7.8,-31.2c15.9,-6.6 40.8,-11.2 63.7,-11.2c53.2,0 80,27.4 80,76.3l0,110.6c-16.2,9.3 -43,17.8 -79.5,17.8zm41.2,-37.4l0,-50.5c-10.9,-2.7 -22.9,-4.6 -36.5,-4.6c-24.1,0 -42,8.5 -42,32.4c0,20.4 14.8,30.8 40.8,30.8c17.9,0 30.3,-3.9 37.7,-8.1z"/>
 </defs>
 <g>
  <title>Layer 1</title>
  <g id="svg_13" stroke="null">
   <use xlink:href="#a" fill="#0098FF" y="56.670825" x="556.022671" id="svg_1" stroke="null" transform="matrix(0.9609231948852539,0,0,0.9365292191505432,-0.06946987627713952,0.11283694457306837) "/>
   <use xlink:href="#b" fill="#131151" y="246.570823" x="564.422634" id="svg_2" stroke="null" transform="matrix(0.9609231948852539,0,0,0.9365292191505432,-0.06946987627713952,0.11283694457306837) "/>
   <use xlink:href="#c" fill="#131151" y="88.270827" x="468.122647" id="svg_3" stroke="null" transform="matrix(0.9609231948852539,0,0,0.9365292191505432,-0.06946987627713952,0.11283694457306837) "/>
   <use xlink:href="#d" fill="#131151" y="276.870826" x="537.022671" id="svg_4" stroke="null" transform="matrix(0.9609231948852539,0,0,0.9365292191505432,-0.06946987627713952,0.11283694457306837) "/>
   <use xlink:href="#e" fill="#131151" y="250.570823" x="558.422634" id="svg_5" stroke="null" transform="matrix(0.9609231948852539,0,0,0.9365292191505432,-0.06946987627713952,0.11283694457306837) "/>
   <use xlink:href="#f" fill="#131151" y="56.970824" x="468.122647" id="svg_6" stroke="null" transform="matrix(0.9609231948852539,0,0,0.9365292191505432,-0.06946987627713952,0.11283694457306837) "/>
   <use xlink:href="#g" fill="#131151" y="326.093048" x="521.578227" id="svg_7" stroke="null" transform="matrix(0.9609231948852539,0,0,0.9365292191505432,-0.06946987627713952,0.11283694457306837) "/>
   <use xlink:href="#g" fill="#131151" y="324.31527" x="733.800449" id="svg_8" stroke="null" transform="matrix(0.9609231948852539,0,0,0.9365292191505432,-0.06946987627713952,0.11283694457306837) "/>
   <use xlink:href="#h" id="svg_10" y="9.370826" x="9.322659" stroke="null" transform="matrix(0.9609231948852539,0,0,0.9365292191505432,-0.06946987627713952,0.11283694457306837) "/>
   <use xlink:href="#i" y="51.270827" x="171.222653" id="svg_11" stroke="null" transform="matrix(0.9609231948852539,0,0,0.9365292191505432,-0.06946987627713952,0.11283694457306837) "/>
   <use xlink:href="#j" y="51.270827" x="295.722653" id="svg_12" stroke="null" transform="matrix(0.9609231948852539,0,0,0.9365292191505432,-0.06946987627713952,0.11283694457306837) "/>
  </g>
 </g>
</svg>